<svg width="101" height="102" viewBox="0 0 101 102" fill="none" xmlns="http://www.w3.org/2000/svg">
<path d="M43.6236 0.874945C19.6151 0.874945 0.0849686 20.4051 0.0849686 44.4136C0.0849686 68.422 19.6151 87.9522 43.6236 87.9522C50.9629 87.9522 58.1779 86.2106 64.2733 82.8519C64.7616 83.4395 65.3029 83.9808 65.8905 84.4691L78.3301 96.9087C79.4787 98.2012 80.8794 99.2452 82.4461 99.9768C84.0129 100.708 85.7126 101.112 87.441 101.163C89.1694 101.214 90.8899 100.911 92.497 100.273C94.104 99.6345 95.5637 98.6747 96.7864 97.452C98.0091 96.2293 98.969 94.7696 99.6071 93.1626C100.245 91.5555 100.548 89.835 100.497 88.1066C100.446 86.3782 100.043 84.6785 99.3112 83.1117C98.5796 81.545 97.5356 80.1443 96.2431 78.9957L83.8035 66.5561C83.1975 65.9499 82.5305 65.4079 81.8132 64.9389C85.1719 58.8435 87.2866 51.7529 87.2866 44.2892C87.2866 20.2807 67.7564 0.750549 43.748 0.750549L43.6236 0.874945ZM43.6236 13.3145C60.9146 13.3145 74.7226 27.1225 74.7226 44.4136C74.7226 52.6237 71.7371 60.2119 66.5124 65.8097C66.3881 65.9341 66.2637 66.0585 66.1393 66.1829C65.5517 66.6711 65.0104 67.2125 64.5221 67.8C59.0487 72.7759 51.5849 75.637 43.4992 75.637C26.2081 75.637 12.4002 61.829 12.4002 44.538C12.4002 27.2469 26.2081 13.4389 43.4992 13.4389L43.6236 13.3145Z" fill="white"/>
</svg>
