<svg width="101" height="101" viewBox="0 0 101 101" fill="none" xmlns="http://www.w3.org/2000/svg">
<path d="M43.9484 0L37.688 14.8999C36.4359 15.2755 35.309 15.9016 34.1821 16.5276L19.2822 10.2672L10.2672 19.2822L16.5276 34.1821C15.9016 35.4342 15.4007 36.4359 14.8999 37.688L0 43.9484V56.4693L14.8999 62.7298C15.4007 63.9819 15.9016 64.9836 16.5276 66.2357L10.2672 81.1355L19.2822 90.1506L34.1821 83.8901C35.309 84.391 36.4359 85.017 37.688 85.5179L43.9484 100.418H56.4693L62.7298 85.5179C63.8567 85.017 65.1088 84.5162 66.2357 83.8901L81.1355 90.1506L90.1506 81.1355L83.8902 66.2357C84.391 65.1088 85.017 63.8567 85.5179 62.7298L100.418 56.4693V43.9484L85.5179 37.688C85.1422 36.5611 84.5162 35.309 83.8902 34.1821L90.1506 19.2822L81.1355 10.2672L66.2357 16.5276C65.1088 16.0268 63.8567 15.4007 62.7298 14.8999L56.4693 0L43.9484 0ZM50.2089 31.3023C60.6012 31.3023 68.9903 39.6913 68.9903 50.0837C68.9903 60.476 60.6012 68.865 50.2089 68.865C39.8165 68.865 31.4275 60.476 31.4275 50.0837C31.4275 39.6913 39.8165 31.3023 50.2089 31.3023Z" fill="white"/>
</svg>
