<svg width="101" height="101" viewBox="0 0 101 101" fill="none" xmlns="http://www.w3.org/2000/svg">
<path d="M50.2089 0C22.594 0 0 22.594 0 50.2089C0 77.8238 22.594 100.418 50.2089 100.418C77.8238 100.418 100.418 77.8238 100.418 50.2089C100.418 22.594 77.8238 0 50.2089 0ZM50.2089 12.5522C71.0456 12.5522 87.8655 29.3722 87.8655 50.2089C87.8655 71.0456 71.0456 87.8655 50.2089 87.8655C29.3722 87.8655 12.5522 71.0456 12.5522 50.2089C12.5522 29.3722 29.3722 12.5522 50.2089 12.5522ZM50.2089 25.1044C46.6943 25.1044 43.9328 27.8659 43.9328 31.3806C43.9328 34.8952 46.6943 37.6567 50.2089 37.6567C53.7235 37.6567 56.485 34.8952 56.485 31.3806C56.485 27.8659 53.7235 25.1044 50.2089 25.1044ZM29.3722 37.6567C28.3329 37.9904 27.3986 38.5893 26.6616 39.3945C25.9245 40.1996 25.4102 41.183 25.1694 42.2477C24.9286 43.3123 24.9696 44.4214 25.2884 45.4653C25.6072 46.5093 26.1928 47.452 26.9873 48.2005L38.4098 59.6231C38.1588 60.6272 37.6567 61.6314 37.6567 62.7611C37.6567 69.6648 43.3052 75.3133 50.2089 75.3133C57.1126 75.3133 62.7611 69.6648 62.7611 62.7611C62.7611 55.8574 57.1126 50.2089 50.2089 50.2089C49.0792 50.2089 48.075 50.711 47.0708 50.962L35.6483 39.5395C34.9615 38.7794 34.0991 38.199 33.1364 37.8489C32.1737 37.4989 31.1399 37.3897 30.1253 37.5311C29.8745 37.5161 29.623 37.5161 29.3722 37.5311V37.6567ZM69.0372 37.6567C65.5226 37.6567 62.7611 40.4182 62.7611 43.9328C62.7611 47.4474 65.5226 50.2089 69.0372 50.2089C72.5518 50.2089 75.3133 47.4474 75.3133 43.9328C75.3133 40.4182 72.5518 37.6567 69.0372 37.6567Z" fill="white"/>
</svg>
